<svg xmlns="http://www.w3.org/2000/svg" width="389" height="129" viewBox="0 0 389 129" version="1.1"><path d="M 62.142 30.858 C 59.400 33.600, 58.609 37.053, 59.330 43.137 L 59.918 48.106 55.645 49.938 C 50.945 51.952, 46 57.112, 46 60 C 46 62.845, 50.934 68.054, 55.442 69.969 L 59.500 71.692 59.500 79.738 C 59.500 86.246, 59.864 88.187, 61.405 89.892 C 64.391 93.196, 69.773 92.691, 75.961 88.526 L 81.124 85.052 86.174 88.526 C 92.232 92.693, 97.604 93.202, 100.595 89.892 C 102.131 88.192, 102.500 86.248, 102.500 79.844 L 102.501 71.903 106.754 69.999 C 112.204 67.559, 116 63.453, 116 60 C 116 56.570, 112.213 52.445, 106.865 50.051 L 102.723 48.196 102.611 40.509 C 102.511 33.598, 102.249 32.619, 100.015 30.811 C 96.637 28.076, 91.392 28.876, 85.643 33.005 L 81.173 36.215 76.501 33.001 C 70.416 28.814, 64.995 28.005, 62.142 30.858 M 63.627 34.123 C 61.946 36.522, 61.562 40.761, 62.654 44.842 C 63.233 47.005, 63.636 47.133, 67.891 46.510 C 72.528 45.831, 78 41.963, 78 39.364 C 78 37.532, 71.839 33.118, 68.293 32.409 C 65.846 31.919, 64.936 32.254, 63.627 34.123 M 90.502 33.575 C 87.057 35.372, 84 37.959, 84 39.078 C 84 39.501, 85.122 41.179, 86.492 42.809 C 89.399 46.263, 97.607 48.227, 99.125 45.832 C 100.520 43.631, 100.108 36.599, 98.443 34.223 C 96.609 31.603, 94.599 31.439, 90.502 33.575 M 160 47.987 L 160 62.975 163.980 65.487 C 166.169 66.869, 168.194 68, 168.480 68 C 168.766 68, 169 63.725, 169 58.500 C 169 51.950, 169.361 49, 170.162 49 C 170.801 49, 174.848 51.066, 179.156 53.591 L 186.987 58.182 194.947 53.591 C 199.325 51.066, 203.378 49, 203.953 49 C 204.529 49, 205 50.991, 205 53.425 L 205 57.850 196 63 L 187 68.150 187 73.462 L 187 78.775 195.997 83.890 L 204.994 89.006 215.747 82.850 C 233.380 72.755, 232 74.399, 232 63.491 C 232 58.336, 231.662 53.919, 231.250 53.676 C 230.838 53.433, 228.925 54.240, 227 55.471 C 223.869 57.472, 223.447 58.272, 223 63.058 L 222.500 68.407 214.060 73.264 C 205.172 78.379, 203.526 78.584, 199.095 75.132 L 196.690 73.258 205.095 68.299 L 213.500 63.340 213.776 48.170 C 213.935 39.411, 213.664 33, 213.133 33 C 212.627 33, 206.749 36.150, 200.070 40 C 193.391 43.850, 187.497 47, 186.972 47 C 186.447 47, 180.447 43.850, 173.638 40 C 166.830 36.150, 160.977 33, 160.630 33 C 160.284 33, 160 39.744, 160 47.987 M 226.250 35.175 C 223.298 37, 223 37.634, 223 42.092 C 223 44.791, 223.276 47, 223.614 47 C 223.951 47, 225.976 46.017, 228.114 44.816 C 231.788 42.751, 232 42.369, 232 37.816 C 232 32.395, 231.281 32.065, 226.250 35.175 M 308.836 35.907 C 302.810 37.141, 298.681 40.350, 295.406 46.343 C 293.380 50.051, 294.161 50.668, 297.671 48.133 C 300.406 46.158, 303.183 45.519, 307.624 45.844 C 308.792 45.930, 312.585 48.532, 316.052 51.626 C 323.778 58.519, 327.156 60, 335.152 60 C 342.904 60, 349.112 57.201, 352.537 52.161 C 356.110 46.902, 355.780 45.355, 351.632 47.918 C 349.656 49.140, 346.572 50, 344.170 50 C 340.605 50, 339.262 49.271, 333.788 44.362 C 330.330 41.262, 326.150 38.154, 324.500 37.457 C 320.372 35.714, 313.230 35.007, 308.836 35.907 M 79 43.500 C 77.937 44.781, 78.229 45, 81 45 C 83.771 45, 84.063 44.781, 83 43.500 C 82.315 42.675, 81.415 42, 81 42 C 80.585 42, 79.685 42.675, 79 43.500 M 67 49.979 C 65.235 50.441, 64.598 51.201, 64.834 52.566 C 65.443 56.098, 66.810 56.268, 68.489 53.022 C 70.419 49.289, 70.331 49.109, 67 49.979 M 73.202 51.750 C 72.139 53.263, 70.569 55.871, 69.713 57.547 C 68.236 60.442, 68.292 60.843, 70.833 65.547 L 73.508 70.500 80.934 70.500 L 88.360 70.500 91.177 65.705 L 93.995 60.910 91.881 56.705 C 88.365 49.711, 87.353 49, 80.913 49 C 75.746 49, 74.932 49.291, 73.202 51.750 M 92 49.636 C 92 51.308, 95.325 56.068, 96.002 55.365 C 98.059 53.224, 97.472 50.677, 94.750 49.929 C 93.237 49.513, 92 49.381, 92 49.636 M 53.876 54.424 C 49.434 57.460, 48.511 59.605, 50.402 62.491 C 51.889 64.759, 57.676 68, 60.241 68 C 61.032 68, 62.263 66.233, 62.976 64.073 C 64.073 60.748, 64.039 59.559, 62.754 56.323 C 60.886 51.622, 58.669 51.148, 53.876 54.424 M 99.513 55.622 C 97.634 60.121, 97.634 60.880, 99.516 65.385 L 101.032 69.013 104.766 67.465 C 106.820 66.613, 109.594 64.830, 110.931 63.504 C 113.051 61.401, 113.214 60.765, 112.202 58.544 C 110.933 55.759, 105.522 52.010, 102.763 52.004 C 101.711 52.001, 100.431 53.427, 99.513 55.622 M 76.323 55.250 C 73.402 58.495, 73.045 60.203, 74.544 63.768 C 76.901 69.372, 85.131 69.301, 87.838 63.652 C 91.350 56.324, 81.697 49.280, 76.323 55.250 M 285.637 61.404 C 281.219 63.049, 276.501 67.198, 274.337 71.343 C 272.569 74.729, 273.291 75.952, 275.746 73.730 C 278.504 71.234, 283.076 69.858, 286.276 70.561 C 287.886 70.914, 291.690 73.456, 294.730 76.208 C 301.901 82.702, 306.952 84.950, 314.434 84.978 C 321.885 85.006, 328.153 82.141, 331.537 77.161 C 335.110 71.902, 334.780 70.355, 330.632 72.918 C 326.905 75.222, 322.030 75.606, 318.684 73.860 C 317.483 73.233, 314.433 70.807, 311.907 68.467 C 309.381 66.128, 305.905 63.485, 304.182 62.594 C 299.666 60.259, 290.324 59.659, 285.637 61.404 M 65.661 66.441 C 64.591 69.230, 64.880 70, 67 70 C 69.339 70, 69.514 69.085, 67.661 66.551 C 66.411 64.841, 66.278 64.834, 65.661 66.441 M 94.050 66.906 C 92.595 69.625, 92.711 70, 95 70 C 96.313 70, 97 69.333, 97 68.059 C 97 65.276, 95.282 64.604, 94.050 66.906 M 62.471 78.386 C 61.339 87.448, 65.037 91.101, 71.802 87.602 C 76.204 85.326, 78.319 82.463, 77.172 80.333 C 75.252 76.770, 71.428 74.092, 67.325 73.436 L 63.172 72.772 62.471 78.386 M 92.091 73.873 C 90.766 74.244, 88.325 76.224, 86.667 78.273 L 83.651 81.999 85.924 84.419 C 88.725 87.401, 93.051 89.273, 96.122 88.832 C 99.085 88.406, 100.496 83.790, 99.563 77.571 C 98.833 72.703, 97.909 72.246, 92.091 73.873 M 77.463 75.060 C 77.234 75.430, 77.952 76.552, 79.059 77.553 C 81.009 79.318, 81.134 79.310, 83.136 77.308 L 85.202 75.242 81.540 74.815 C 79.526 74.580, 77.692 74.690, 77.463 75.060" stroke="none" fill="#16b1e4" fill-rule="evenodd"/><path d="M 49.175 1.459 C 46.246 2.168, 39.961 4.674, 35.209 7.029 C 22.705 13.225, 12.828 23.287, 6.685 36.089 C 1.352 47.201, -0.005 53.045, 0.016 64.799 C 0.059 88.823, 12.984 110.428, 33.830 121.322 C 47.551 128.492, 35.714 128, 194.500 128 C 353.286 128, 341.449 128.492, 355.170 121.322 C 368.087 114.572, 379.004 102.392, 384.707 88.369 C 387.396 81.755, 387.500 80.851, 387.500 64 L 387.500 46.500 382.649 36.589 C 378.679 28.476, 376.394 25.273, 370.061 18.939 C 363.748 12.627, 360.589 10.370, 352.911 6.685 C 347.735 4.201, 341.115 1.681, 338.201 1.084 C 329.927 -0.609, 56.253 -0.254, 49.175 1.459 M 62.142 30.858 C 59.400 33.600, 58.609 37.053, 59.330 43.137 L 59.918 48.106 55.645 49.938 C 50.945 51.952, 46 57.112, 46 60 C 46 62.845, 50.934 68.054, 55.442 69.969 L 59.500 71.692 59.500 79.738 C 59.500 86.246, 59.864 88.187, 61.405 89.892 C 64.391 93.196, 69.773 92.691, 75.961 88.526 L 81.124 85.052 86.174 88.526 C 92.232 92.693, 97.604 93.202, 100.595 89.892 C 102.131 88.192, 102.500 86.248, 102.500 79.844 L 102.501 71.903 106.754 69.999 C 112.204 67.559, 116 63.453, 116 60 C 116 56.570, 112.213 52.445, 106.865 50.051 L 102.723 48.196 102.611 40.509 C 102.511 33.598, 102.249 32.619, 100.015 30.811 C 96.637 28.076, 91.392 28.876, 85.643 33.005 L 81.173 36.215 76.501 33.001 C 70.416 28.814, 64.995 28.005, 62.142 30.858 M 63.627 34.123 C 61.946 36.522, 61.562 40.761, 62.654 44.842 C 63.233 47.005, 63.636 47.133, 67.891 46.510 C 72.528 45.831, 78 41.963, 78 39.364 C 78 37.532, 71.839 33.118, 68.293 32.409 C 65.846 31.919, 64.936 32.254, 63.627 34.123 M 90.502 33.575 C 87.057 35.372, 84 37.959, 84 39.078 C 84 39.501, 85.122 41.179, 86.492 42.809 C 89.399 46.263, 97.607 48.227, 99.125 45.832 C 100.520 43.631, 100.108 36.599, 98.443 34.223 C 96.609 31.603, 94.599 31.439, 90.502 33.575 M 160 47.987 L 160 62.975 163.980 65.487 C 166.169 66.869, 168.194 68, 168.480 68 C 168.766 68, 169 63.725, 169 58.500 C 169 51.950, 169.361 49, 170.162 49 C 170.801 49, 174.848 51.066, 179.156 53.591 L 186.987 58.182 194.947 53.591 C 199.325 51.066, 203.378 49, 203.953 49 C 204.529 49, 205 50.991, 205 53.425 L 205 57.850 196 63 L 187 68.150 187 73.462 L 187 78.775 195.997 83.890 L 204.994 89.006 215.747 82.850 C 233.380 72.755, 232 74.399, 232 63.491 C 232 58.336, 231.662 53.919, 231.250 53.676 C 230.838 53.433, 228.925 54.240, 227 55.471 C 223.869 57.472, 223.447 58.272, 223 63.058 L 222.500 68.407 214.060 73.264 C 205.172 78.379, 203.526 78.584, 199.095 75.132 L 196.690 73.258 205.095 68.299 L 213.500 63.340 213.776 48.170 C 213.935 39.411, 213.664 33, 213.133 33 C 212.627 33, 206.749 36.150, 200.070 40 C 193.391 43.850, 187.497 47, 186.972 47 C 186.447 47, 180.447 43.850, 173.638 40 C 166.830 36.150, 160.977 33, 160.630 33 C 160.284 33, 160 39.744, 160 47.987 M 226.250 35.175 C 223.298 37, 223 37.634, 223 42.092 C 223 44.791, 223.276 47, 223.614 47 C 223.951 47, 225.976 46.017, 228.114 44.816 C 231.788 42.751, 232 42.369, 232 37.816 C 232 32.395, 231.281 32.065, 226.250 35.175 M 308.836 35.907 C 302.810 37.141, 298.681 40.350, 295.406 46.343 C 293.380 50.051, 294.161 50.668, 297.671 48.133 C 300.406 46.158, 303.183 45.519, 307.624 45.844 C 308.792 45.930, 312.585 48.532, 316.052 51.626 C 323.778 58.519, 327.156 60, 335.152 60 C 342.904 60, 349.112 57.201, 352.537 52.161 C 356.110 46.902, 355.780 45.355, 351.632 47.918 C 349.656 49.140, 346.572 50, 344.170 50 C 340.605 50, 339.262 49.271, 333.788 44.362 C 330.330 41.262, 326.150 38.154, 324.500 37.457 C 320.372 35.714, 313.230 35.007, 308.836 35.907 M 79 43.500 C 77.937 44.781, 78.229 45, 81 45 C 83.771 45, 84.063 44.781, 83 43.500 C 82.315 42.675, 81.415 42, 81 42 C 80.585 42, 79.685 42.675, 79 43.500 M 67 49.979 C 65.235 50.441, 64.598 51.201, 64.834 52.566 C 65.443 56.098, 66.810 56.268, 68.489 53.022 C 70.419 49.289, 70.331 49.109, 67 49.979 M 73.202 51.750 C 72.139 53.263, 70.569 55.871, 69.713 57.547 C 68.236 60.442, 68.292 60.843, 70.833 65.547 L 73.508 70.500 80.934 70.500 L 88.360 70.500 91.177 65.705 L 93.995 60.910 91.881 56.705 C 88.365 49.711, 87.353 49, 80.913 49 C 75.746 49, 74.932 49.291, 73.202 51.750 M 92 49.636 C 92 51.308, 95.325 56.068, 96.002 55.365 C 98.059 53.224, 97.472 50.677, 94.750 49.929 C 93.237 49.513, 92 49.381, 92 49.636 M 53.876 54.424 C 49.434 57.460, 48.511 59.605, 50.402 62.491 C 51.889 64.759, 57.676 68, 60.241 68 C 61.032 68, 62.263 66.233, 62.976 64.073 C 64.073 60.748, 64.039 59.559, 62.754 56.323 C 60.886 51.622, 58.669 51.148, 53.876 54.424 M 99.513 55.622 C 97.634 60.121, 97.634 60.880, 99.516 65.385 L 101.032 69.013 104.766 67.465 C 106.820 66.613, 109.594 64.830, 110.931 63.504 C 113.051 61.401, 113.214 60.765, 112.202 58.544 C 110.933 55.759, 105.522 52.010, 102.763 52.004 C 101.711 52.001, 100.431 53.427, 99.513 55.622 M 76.323 55.250 C 73.402 58.495, 73.045 60.203, 74.544 63.768 C 76.901 69.372, 85.131 69.301, 87.838 63.652 C 91.350 56.324, 81.697 49.280, 76.323 55.250 M 285.637 61.404 C 281.219 63.049, 276.501 67.198, 274.337 71.343 C 272.569 74.729, 273.291 75.952, 275.746 73.730 C 278.504 71.234, 283.076 69.858, 286.276 70.561 C 287.886 70.914, 291.690 73.456, 294.730 76.208 C 301.901 82.702, 306.952 84.950, 314.434 84.978 C 321.885 85.006, 328.153 82.141, 331.537 77.161 C 335.110 71.902, 334.780 70.355, 330.632 72.918 C 326.905 75.222, 322.030 75.606, 318.684 73.860 C 317.483 73.233, 314.433 70.807, 311.907 68.467 C 309.381 66.128, 305.905 63.485, 304.182 62.594 C 299.666 60.259, 290.324 59.659, 285.637 61.404 M 65.661 66.441 C 64.591 69.230, 64.880 70, 67 70 C 69.339 70, 69.514 69.085, 67.661 66.551 C 66.411 64.841, 66.278 64.834, 65.661 66.441 M 94.050 66.906 C 92.595 69.625, 92.711 70, 95 70 C 96.313 70, 97 69.333, 97 68.059 C 97 65.276, 95.282 64.604, 94.050 66.906 M 62.471 78.386 C 61.339 87.448, 65.037 91.101, 71.802 87.602 C 76.204 85.326, 78.319 82.463, 77.172 80.333 C 75.252 76.770, 71.428 74.092, 67.325 73.436 L 63.172 72.772 62.471 78.386 M 92.091 73.873 C 90.766 74.244, 88.325 76.224, 86.667 78.273 L 83.651 81.999 85.924 84.419 C 88.725 87.401, 93.051 89.273, 96.122 88.832 C 99.085 88.406, 100.496 83.790, 99.563 77.571 C 98.833 72.703, 97.909 72.246, 92.091 73.873 M 77.463 75.060 C 77.234 75.430, 77.952 76.552, 79.059 77.553 C 81.009 79.318, 81.134 79.310, 83.136 77.308 L 85.202 75.242 81.540 74.815 C 79.526 74.580, 77.692 74.690, 77.463 75.060" stroke="none" fill="#f9fbfb" fill-rule="evenodd"/></svg>
