<?xml version="1.0" standalone="no"?>
<!DOCTYPE svg PUBLIC "-//W3C//DTD SVG 20010904//EN"
 "http://www.w3.org/TR/2001/REC-SVG-20010904/DTD/svg10.dtd">
<svg version="1.0" xmlns="http://www.w3.org/2000/svg"
 width="1080.000000pt" height="1080.000000pt" viewBox="0 0 1080.000000 1080.000000"
 preserveAspectRatio="xMidYMid meet">

<g transform="translate(0.000000,1080.000000) scale(0.100000,-0.100000)"
fill="#000000" stroke="none">
<path d="M5165 10709 c-436 -24 -951 -121 -1369 -260 -782 -260 -1387 -622
-2030 -1214 -450 -415 -856 -967 -1141 -1550 -79 -162 -185 -412 -185 -435 0
-6 36 19 80 56 44 36 85 64 91 62 14 -5 -26 -55 -138 -177 -51 -55 -95 -112
-99 -127 -8 -31 12 -52 143 -156 43 -34 94 -77 113 -94 19 -18 49 -43 65 -56
17 -12 37 -30 45 -39 8 -9 40 -35 70 -59 49 -40 115 -97 207 -181 17 -16 39
-29 47 -29 15 0 15 -3 1 -29 -17 -33 -35 -41 -100 -45 -34 -2 -55 4 -90 26
-25 15 -45 32 -45 37 0 5 -9 13 -20 16 -11 3 -20 12 -20 18 0 7 -17 22 -38 34
-47 27 -137 99 -271 217 -57 50 -118 101 -137 113 -31 21 -34 22 -43 5 -5 -9
-32 -109 -60 -222 -184 -746 -207 -1527 -65 -2298 60 -332 204 -832 239 -832
8 0 20 6 27 13 7 7 24 20 38 29 132 91 188 133 256 194 99 89 148 128 249 198
44 30 103 75 130 101 28 25 88 69 135 96 114 68 207 136 220 159 7 14 8 32 1
58 -5 20 -15 71 -22 112 -6 41 -14 79 -16 84 -7 10 -15 91 -14 125 1 14 9 34
19 45 13 16 18 37 18 81 -1 33 3 63 8 67 6 4 5 12 -2 21 -10 11 -8 24 8 62 11
26 18 51 14 56 -3 5 -1 9 5 9 6 0 17 13 25 29 31 59 120 153 187 196 38 25 92
63 120 85 28 22 60 40 71 40 21 0 21 0 2 -21 -10 -12 -33 -28 -50 -35 -18 -7
-45 -27 -60 -44 -16 -17 -50 -44 -76 -61 -40 -26 -58 -49 -113 -147 -36 -66
-65 -129 -65 -145 0 -15 -7 -42 -16 -59 -19 -38 -21 -131 -3 -173 7 -16 18
-50 25 -75 10 -38 10 -48 -2 -61 -20 -22 -18 -32 16 -105 33 -72 55 -81 103
-44 14 11 27 20 30 20 3 0 36 17 74 39 82 46 214 117 341 183 51 26 109 59
130 73 20 14 43 25 52 25 8 0 29 8 45 18 31 19 137 74 305 157 52 26 102 56
110 67 9 10 32 23 50 28 78 20 239 79 301 111 20 10 125 45 233 79 108 33 203
63 211 66 24 10 18 -30 -7 -53 -24 -22 -70 -37 -148 -47 -25 -4 -60 -15 -76
-25 -33 -20 -85 -90 -108 -145 -7 -17 -33 -56 -57 -86 -49 -60 -113 -165 -124
-202 -12 -40 -34 -89 -105 -233 -38 -77 -76 -162 -85 -190 -9 -27 -21 -58 -26
-67 -4 -9 -29 -90 -54 -180 -25 -90 -52 -185 -60 -213 -72 -248 -79 -294 -71
-474 10 -234 16 -273 46 -288 14 -7 37 -13 53 -13 31 0 32 -6 12 -83 -18 -70
-11 -165 18 -222 23 -47 168 -190 241 -239 28 -19 103 -87 166 -152 63 -65
164 -167 223 -227 59 -60 119 -125 132 -145 13 -20 43 -64 66 -97 23 -33 64
-103 90 -155 26 -52 61 -113 76 -136 15 -23 41 -61 57 -85 28 -42 130 -172
168 -214 10 -11 54 -69 99 -130 45 -60 99 -129 120 -152 21 -23 58 -73 83
-110 24 -37 67 -90 96 -118 29 -27 86 -90 128 -140 130 -155 211 -244 404
-437 l187 -188 679 0 c647 0 685 1 783 21 520 103 1080 307 1528 555 341 189
606 371 906 621 162 134 477 448 616 613 121 143 269 336 269 350 0 11 -42 79
-81 130 -45 59 -45 76 -2 104 21 14 51 39 67 56 17 17 40 33 52 36 12 3 36 23
54 45 17 22 50 51 72 65 22 14 54 40 71 58 18 17 48 42 68 54 20 12 39 32 42
43 3 11 15 23 26 26 14 3 38 40 74 112 162 318 305 698 396 1051 82 320 96
413 57 381 -19 -16 -29 1 -20 33 4 17 0 30 -15 45 -12 12 -21 26 -21 31 0 6
-4 10 -10 10 -5 0 -10 9 -10 21 0 12 -13 33 -29 48 -32 30 -47 66 -31 76 11 7
7 261 -4 272 -3 4 -4 23 -1 42 5 33 4 34 -6 11 -10 -25 -11 -25 -25 -5 -23 30
-14 79 14 83 17 3 21 8 17 23 -4 10 -7 32 -7 49 -1 16 -5 30 -10 30 -4 0 -8 7
-8 15 0 8 7 15 15 15 8 0 15 -9 15 -19 0 -11 9 -23 20 -26 21 -7 23 -13 20
-56 -1 -22 4 -27 31 -33 21 -4 47 -22 71 -48 l37 -42 1 668 c0 758 4 710 -86
1071 -273 1091 -847 2027 -1695 2767 -182 158 -473 373 -681 501 -177 110
-255 142 -200 84 30 -31 29 -75 0 -79 -12 -2 -28 -14 -34 -26 -8 -16 -14 -20
-19 -12 -6 9 -9 9 -16 -1 -13 -22 -58 7 -152 96 -46 44 -101 95 -123 114 -21
18 -71 63 -109 100 -39 36 -87 80 -106 97 -66 59 -432 190 -764 274 -545 139
-1071 189 -1650 159z m2857 -1129 c11 0 18 -5 16 -12 -3 -8 -20 -11 -48 -9
-36 2 -42 0 -37 -13 4 -10 1 -16 -7 -16 -8 0 -16 7 -19 15 -7 16 39 45 61 39
8 -2 23 -4 34 -4z m-342 -617 c0 -12 -33 -43 -47 -43 -21 0 -15 26 10 38 26
13 37 14 37 5z m168 -131 c3 -18 -1 -22 -22 -22 -19 0 -26 5 -26 18 0 39 43
43 48 4z m548 -1 c5 -5 35 -5 72 0 41 6 70 5 82 -1 10 -6 30 -10 44 -10 42 0
105 -30 127 -61 11 -16 25 -29 30 -29 11 0 38 -22 97 -81 44 -44 93 -69 133
-69 27 0 99 -52 99 -71 0 -26 60 -84 83 -81 15 3 18 -1 12 -18 -5 -16 4 -35
36 -76 23 -30 47 -58 54 -62 7 -4 17 -17 24 -29 6 -13 28 -27 49 -33 49 -13
68 -25 53 -34 -18 -11 -13 -22 25 -60 27 -27 44 -36 70 -36 34 0 49 -19 17
-21 -10 0 -4 -5 13 -10 26 -7 32 -15 38 -48 3 -21 12 -44 20 -51 12 -9 14 -26
9 -77 -5 -56 -4 -68 12 -79 14 -11 17 -23 13 -69 -4 -51 -3 -58 16 -65 24 -9
42 -40 49 -85 3 -16 9 -38 12 -47 5 -12 -3 -26 -24 -45 -22 -21 -28 -32 -21
-43 16 -25 12 -50 -9 -50 -10 0 -29 -8 -41 -18 -21 -17 -22 -21 -9 -55 11 -32
11 -39 -4 -55 -19 -21 -22 -45 -7 -73 9 -16 6 -25 -20 -50 -16 -17 -30 -33
-30 -37 0 -3 -12 -18 -27 -34 -39 -41 -19 -48 22 -8 35 34 35 34 35 9 0 -26
51 -79 75 -79 8 0 17 -4 20 -10 4 -6 -5 -10 -19 -10 -14 0 -26 -4 -26 -9 0
-12 45 -41 64 -41 15 0 26 -21 26 -51 0 -10 7 -19 15 -19 8 0 15 -3 15 -8 0
-13 81 -107 100 -115 11 -6 20 -25 24 -55 5 -37 3 -49 -14 -67 -11 -12 -20
-35 -20 -54 0 -27 -5 -34 -35 -47 -19 -7 -45 -14 -59 -14 -18 0 -25 -6 -28
-22 -2 -17 -10 -23 -28 -23 -22 0 -25 4 -25 40 0 38 -2 40 -34 43 -18 2 -38
-1 -44 -7 -6 -6 -16 -6 -29 2 -16 10 -22 8 -36 -9 -9 -12 -32 -24 -50 -26 -31
-4 -35 -2 -49 34 -15 39 -27 45 -52 29 -24 -16 -91 38 -91 72 0 16 -4 26 -10
22 -5 -3 -10 -15 -10 -26 0 -10 -7 -19 -15 -19 -8 0 -15 9 -15 20 0 29 -28 25
-36 -6 -5 -20 -12 -24 -33 -22 -21 2 -25 8 -23 28 2 19 -5 29 -27 41 -22 13
-28 22 -24 41 4 19 -2 29 -22 42 -15 10 -35 16 -45 13 -10 -2 -23 -1 -30 3
-20 12 -2 30 31 30 40 0 38 25 -3 36 -29 8 -33 14 -36 47 -3 34 -6 37 -33 37
-22 0 -29 -5 -29 -19 0 -11 -4 -22 -9 -26 -16 -9 -42 26 -39 53 3 22 -2 28
-30 36 -32 9 -103 -5 -127 -26 -21 -18 -46 -8 -52 23 -3 19 -9 26 -13 19 -12
-20 -70 -2 -80 25 -12 31 -62 48 -97 32 -23 -10 -28 -8 -48 17 -20 25 -25 27
-58 18 -24 -7 -49 -7 -77 0 -27 7 -48 7 -63 1 -32 -14 -84 3 -132 44 -28 24
-48 33 -67 31 -14 -1 -35 5 -45 13 -28 25 -133 48 -133 29 0 -5 16 -16 36 -25
40 -16 39 -40 -1 -25 -14 5 -25 7 -25 4 0 -4 -11 1 -25 10 -33 22 -173 42
-187 28 -8 -8 -4 -14 14 -21 15 -5 29 -15 33 -20 3 -6 15 -11 26 -11 34 0 24
-37 -13 -45 -26 -6 -35 -4 -46 14 -8 11 -23 21 -33 21 -10 0 -25 10 -34 22
-13 20 -18 21 -36 10 -16 -10 -24 -11 -35 -1 -10 8 -12 15 -4 23 5 5 10 21 10
35 0 22 -1 23 -12 8 -25 -32 -114 -49 -147 -28 -13 9 -54 -2 -75 -20 -5 -4
-10 -24 -13 -44 -4 -37 -62 -167 -88 -195 -8 -9 -15 -24 -15 -34 0 -9 -11 -21
-24 -26 -47 -18 -61 -113 -21 -150 21 -20 34 -23 112 -23 48 0 121 2 161 5 53
3 77 1 92 -9 24 -17 16 -36 -11 -28 -11 4 -25 2 -32 -3 -7 -5 -65 -10 -129
-10 -64 -1 -125 -5 -135 -10 -10 -5 -31 -14 -48 -19 -20 -5 -31 -16 -33 -31
-4 -27 29 -42 96 -42 50 0 104 -26 133 -62 19 -24 36 -17 49 18 9 23 13 24
120 24 115 0 120 -2 98 -43 -6 -12 -14 -49 -17 -81 -4 -38 -11 -61 -21 -66
-71 -33 -117 -61 -125 -79 -6 -12 -19 -21 -32 -21 -12 0 -28 -9 -35 -19 -8
-11 -26 -25 -40 -32 -15 -6 -31 -24 -37 -39 -9 -26 -5 -32 48 -78 32 -28 73
-66 92 -84 19 -18 43 -37 54 -43 11 -5 27 -24 35 -40 10 -22 35 -40 93 -69
104 -51 136 -58 302 -60 77 -2 192 -6 255 -10 109 -8 121 -6 198 18 45 14 89
30 99 35 26 13 123 29 144 24 22 -6 76 -113 85 -169 7 -48 -4 -75 -51 -120
-18 -16 -36 -41 -40 -54 -13 -40 -86 -145 -99 -142 -7 1 -19 -16 -26 -38 -7
-22 -19 -45 -27 -51 -7 -6 -13 -20 -13 -31 0 -11 -13 -32 -28 -46 -43 -41 -69
-92 -75 -144 -4 -42 -2 -48 14 -48 14 0 19 -7 19 -25 0 -33 -13 -32 -39 3
l-21 27 -18 -21 c-9 -12 -21 -29 -27 -38 -9 -14 -15 -15 -42 -4 -39 15 -63 -1
-63 -42 0 -23 -5 -30 -29 -35 -35 -8 -61 -43 -61 -84 0 -18 -8 -35 -20 -44
-13 -9 -17 -20 -13 -35 6 -23 18 -28 28 -12 9 15 35 12 35 -4 0 -7 7 -19 16
-27 9 -7 13 -21 10 -34 -4 -15 1 -29 15 -41 19 -17 21 -18 30 -1 6 10 22 17
39 17 26 0 30 4 31 28 1 16 3 20 6 10 8 -32 22 -19 38 37 9 30 22 55 28 55 26
1 57 48 57 86 0 21 7 45 17 56 17 19 53 25 53 8 0 -5 -7 -10 -15 -10 -9 0 -18
-7 -21 -15 -8 -19 17 -75 33 -75 7 0 13 -9 13 -19 0 -11 5 -23 10 -26 6 -3 10
-35 10 -71 0 -37 4 -64 10 -64 6 0 12 -6 14 -12 3 -7 12 -34 21 -60 16 -45 19
-47 48 -41 26 5 29 4 24 -11 -5 -11 5 -28 31 -54 38 -37 38 -38 40 -126 3 -76
0 -91 -16 -106 -27 -26 -58 -40 -84 -40 -13 0 -33 -7 -44 -15 -43 -33 -61 0
-25 47 13 16 17 29 10 39 -5 8 -6 28 -3 45 5 27 -1 37 -53 90 -54 57 -63 61
-136 78 -43 10 -81 16 -84 12 -3 -3 -12 -1 -19 5 -8 7 -14 7 -19 -1 -8 -13
-65 -13 -65 0 0 6 -7 10 -15 10 -8 0 -15 -6 -15 -13 0 -14 -93 -18 -106 -5 -4
4 -16 1 -28 -7 -28 -20 -76 -20 -76 1 0 9 -9 18 -21 21 -15 4 -20 12 -16 29 3
20 1 21 -20 13 -27 -10 -41 -5 -61 23 -15 20 -42 24 -59 7 -8 -8 -14 4 -22 43
-12 55 -39 132 -74 207 -11 25 -25 63 -32 85 -9 32 -20 45 -49 60 -36 18 -40
18 -72 2 -38 -18 -59 -58 -49 -96 3 -14 9 -38 12 -55 3 -16 15 -41 27 -55 12
-14 35 -43 51 -65 16 -21 36 -46 45 -55 33 -34 58 -94 49 -117 -11 -29 -57
-31 -89 -3 -13 12 -31 18 -44 15 -11 -3 -41 -6 -66 -7 -44 -3 -45 -2 -48 30
-2 17 -9 32 -15 33 -32 3 -83 -4 -93 -12 -13 -11 -100 -2 -132 14 -17 8 -28 8
-42 -1 -36 -22 -157 -7 -192 24 -15 14 -19 14 -46 -6 -37 -27 -63 -23 -80 13
-10 21 -20 27 -46 27 -18 0 -41 -7 -52 -15 -10 -8 -35 -15 -54 -15 -30 0 -37
-5 -47 -29 -8 -23 -18 -30 -52 -36 -48 -8 -81 -36 -101 -83 -8 -22 -16 -30
-23 -23 -13 13 -69 -43 -87 -87 -7 -18 -20 -37 -29 -43 -12 -7 -13 -12 -3 -15
15 -7 16 -35 1 -31 -6 1 -18 -17 -27 -40 -14 -38 -14 -42 1 -58 9 -9 17 -23
17 -31 0 -8 8 -14 18 -14 10 0 22 -12 29 -30 16 -43 50 -52 133 -39 76 13 94
7 111 -38 7 -18 15 -21 45 -20 21 2 39 8 41 13 2 6 15 9 28 6 14 -2 25 0 25 7
0 5 6 8 14 5 8 -3 23 -1 33 5 17 8 150 23 226 23 22 1 49 -20 130 -98 56 -54
116 -117 134 -139 35 -42 43 -75 19 -75 -8 0 -22 -10 -31 -22 -12 -16 -19 -19
-22 -10 -3 6 -17 12 -33 12 -15 0 -33 7 -40 15 -10 12 -16 13 -26 4 -8 -7 -31
-9 -54 -6 -37 5 -40 3 -40 -18 0 -13 4 -26 9 -30 5 -3 13 -30 16 -59 9 -69 -7
-102 -62 -130 -26 -13 -43 -28 -43 -39 0 -9 -11 -23 -25 -29 -25 -11 -29 -18
-26 -50 3 -25 -27 -78 -44 -78 -26 0 -16 -39 20 -79 19 -21 35 -48 35 -59 0
-12 9 -26 20 -32 11 -6 20 -18 20 -27 0 -9 10 -27 22 -41 l23 -23 -22 -37
c-11 -20 -27 -37 -34 -38 -36 -1 -114 -17 -135 -26 -17 -8 -24 -20 -24 -38 0
-41 -16 -51 -58 -33 -38 16 -57 11 -110 -28 -15 -12 -34 -16 -60 -12 -20 2
-61 7 -89 10 -46 4 -53 8 -54 26 -1 20 -2 19 -8 -3 -4 -14 -13 -25 -21 -25 -8
0 -17 11 -20 25 -4 19 -13 26 -38 28 -32 3 -46 22 -16 22 13 0 12 5 -5 34 -12
18 -21 43 -21 54 0 28 -44 61 -92 68 -21 4 -38 10 -38 15 0 5 -6 9 -14 9 -17
0 -38 25 -29 34 18 18 6 42 -29 58 -30 13 -38 23 -38 43 0 15 -4 35 -10 45 -7
13 -6 19 4 23 15 6 11 47 -4 47 -5 0 -11 13 -15 30 -4 16 -11 28 -18 27 -15
-3 -40 49 -38 82 3 72 0 88 -20 114 -19 26 -20 37 -14 108 l7 79 -32 7 -32 6
6 54 c6 48 3 58 -20 88 -15 19 -32 35 -39 35 -11 0 -25 71 -40 215 -3 22 -10
50 -16 62 -9 16 -9 30 0 54 15 42 14 82 -1 97 -17 17 -18 203 -2 223 6 8 14
44 17 81 8 85 32 184 68 273 60 152 62 178 19 200 -17 9 -53 20 -82 25 -65 13
-94 31 -102 66 -7 28 -31 63 -78 114 -14 16 -29 38 -33 49 -3 12 -11 21 -16
21 -14 0 -11 -16 6 -30 17 -14 20 -62 5 -90 -9 -17 -5 -20 29 -30 25 -6 41
-17 44 -30 3 -11 3 -20 1 -20 -2 0 -47 11 -100 25 -53 14 -106 25 -118 25 -28
0 -68 28 -60 42 4 6 -2 18 -14 27 -13 10 -22 30 -24 56 l-3 40 63 -3 c39 -2
62 0 62 7 0 12 -24 19 -86 25 -67 7 -114 39 -156 106 -38 62 -76 138 -87 173
-7 20 -17 37 -22 37 -11 0 -59 75 -59 93 0 8 -9 22 -20 32 -27 24 -25 39 3 32
52 -14 138 -71 223 -150 50 -47 95 -86 100 -88 5 -2 24 -21 42 -42 25 -29 32
-33 32 -19 0 10 -9 27 -20 37 -12 10 -19 24 -18 31 2 7 33 45 70 86 38 40 92
103 120 139 94 119 206 255 245 298 125 140 198 211 229 221 24 8 39 22 51 48
9 20 22 40 27 44 13 9 36 -10 36 -28 0 -8 8 -14 19 -14 10 0 21 -9 24 -20 3
-13 14 -20 30 -20 13 0 30 -7 37 -15 7 -8 21 -15 31 -15 11 0 19 -7 19 -16 0
-8 -5 -12 -10 -9 -17 10 -60 -23 -60 -46 0 -11 -5 -30 -11 -41 -9 -17 -7 -28
10 -59 20 -36 21 -38 4 -51 -31 -23 -68 -108 -47 -108 29 0 84 78 84 119 0 10
6 24 14 30 7 6 16 25 20 41 3 16 15 38 26 47 12 10 33 44 47 76 14 31 30 57
34 57 5 0 9 9 9 21 0 11 16 37 35 57 19 20 53 56 75 79 22 23 40 51 40 62 0
11 14 36 30 55 20 23 28 40 23 51 -7 21 20 45 51 45 20 0 36 19 74 88 8 13 21
26 30 29 24 8 72 54 72 69 0 21 34 74 47 74 7 0 22 17 33 38 11 20 41 65 65
100 25 35 45 68 45 74 0 7 17 32 38 57 22 25 52 71 68 101 44 82 103 170 114
170 6 0 10 7 10 15 0 8 -5 15 -10 15 -23 0 5 58 51 105 67 68 109 130 109 159
0 14 11 37 24 51 14 15 28 40 31 56 4 16 11 29 16 29 5 0 9 7 9 15 0 9 11 20
24 25 24 9 93 98 88 113 -1 4 10 26 24 48 28 45 23 59 -23 59 -55 0 -28 49 44
82 24 10 47 27 53 38 5 10 20 22 32 26 13 3 31 13 41 22 10 9 33 21 52 28 31
10 35 10 41 -9 6 -20 7 -20 20 -2 7 10 11 21 9 25 -7 12 99 90 121 90 11 0 25
-5 31 -11 18 -18 60 3 119 60 43 41 60 50 110 59 32 6 71 15 86 21 24 9 27 14
22 41 -5 25 -3 31 17 39 31 13 33 13 45 2z m-787 -28 c2 -2 -5 -3 -17 -3 -14
0 -22 6 -22 16 0 14 3 15 18 3 9 -7 19 -15 21 -16z m-176 -109 c12 -13 -5 -30
-30 -29 -33 0 -42 22 -11 28 13 2 26 5 29 6 3 0 8 -2 12 -5z m182 -145 c0 -8
-10 -15 -23 -17 -21 -3 -22 -1 -12 18 12 23 35 22 35 -1z m1555 -65 c0 -8 -5
-12 -10 -9 -6 4 -8 11 -5 16 9 14 15 11 15 -7z m-1875 -14 c-3 -5 -10 -10 -16
-10 -5 0 -9 5 -9 10 0 6 7 10 16 10 8 0 12 -4 9 -10z m-5765 -225 c7 -8 27
-15 44 -15 32 0 58 -15 143 -85 99 -82 228 -190 233 -195 3 -3 53 -45 111 -92
118 -97 159 -140 159 -169 0 -32 -38 -96 -67 -115 -16 -9 -59 -53 -97 -98 -90
-106 -377 -408 -383 -402 -12 12 153 197 370 416 37 37 67 74 67 82 0 8 -57
62 -126 119 -70 57 -163 134 -208 171 -44 37 -86 68 -92 68 -5 0 -26 16 -45
36 -18 20 -59 53 -89 74 -30 21 -67 52 -83 69 -15 17 -35 31 -45 31 -9 0 -47
-30 -85 -67 -37 -36 -70 -63 -74 -59 -14 13 32 79 114 162 66 67 88 84 111 84
16 0 35 -7 42 -15z m-618 -587 c-7 -7 -12 -8 -12 -2 0 14 12 26 19 19 2 -3 -1
-11 -7 -17z m-72 -72 c0 -2 -7 -9 -15 -16 -13 -11 -14 -10 -9 4 5 14 24 23 24
12z m6015 -132 c7 -57 5 -69 -12 -93 -11 -15 -24 -41 -27 -58 -4 -16 -17 -41
-29 -54 -39 -42 -54 -83 -59 -160 -4 -56 -10 -84 -26 -106 -20 -28 -68 -61
-76 -52 -2 2 -6 50 -9 107 -4 99 -11 128 -25 106 -4 -6 -15 -13 -24 -17 -11
-4 -18 -17 -18 -30 0 -14 -13 -55 -29 -93 -16 -38 -32 -85 -35 -104 -4 -19
-23 -61 -43 -93 -33 -51 -38 -55 -45 -36 -10 25 -1 63 25 109 16 28 18 46 13
97 -6 61 -5 64 19 73 14 5 22 15 20 22 -3 7 12 36 32 64 90 122 124 164 133
164 6 0 10 5 10 11 0 7 10 22 23 35 64 67 77 82 77 88 0 9 82 86 91 86 4 0 11
-30 14 -66z m534 -340 c2 -2 -8 -4 -22 -4 -18 0 -27 5 -27 15 0 13 4 14 23 4
12 -6 24 -13 26 -15z m-5769 -99 c-13 -14 -25 -23 -28 -21 -5 6 31 44 42 45 5
1 -1 -10 -14 -24z m4647 -291 c-9 -9 -28 6 -21 18 4 6 10 6 17 -1 6 -6 8 -13
4 -17z m133 12 c0 -2 -9 -34 -20 -70 -20 -65 -21 -66 -56 -66 -19 0 -33 -4
-30 -9 9 -14 -17 -29 -46 -26 -16 2 -28 -1 -28 -6 0 -12 -31 -11 -50 1 -12 8
-13 13 -2 30 6 11 12 30 12 44 0 34 25 53 47 35 15 -13 15 -12 5 8 -16 29 -15
43 3 43 9 0 15 -10 16 -22 1 -13 3 -16 5 -8 4 11 16 14 50 11 37 -2 48 1 60
18 13 18 34 29 34 17z m-250 -127 c0 -20 -24 -26 -35 -9 -8 13 14 42 26 34 5
-3 9 -14 9 -25z m2863 -12 c-9 -16 -26 12 -18 30 7 17 8 17 15 -2 4 -11 5 -24
3 -28z m-2698 -67 c16 -17 16 -20 2 -26 -16 -6 -57 11 -57 25 0 26 31 27 55 1z
m2335 -20 c0 -5 -7 -10 -15 -10 -8 0 -15 5 -15 10 0 6 7 10 15 10 8 0 15 -4
15 -10z m150 -25 c0 -18 -5 -25 -20 -25 -15 0 -20 7 -20 25 0 18 5 25 20 25
15 0 20 -7 20 -25z m1040 -15 c0 -5 -4 -10 -10 -10 -5 0 -10 5 -10 10 0 6 5
10 10 10 6 0 10 -4 10 -10z m-811 -62 c-1 -28 -3 -34 -6 -18 -3 14 -12 33 -20
43 -15 16 -14 17 5 17 19 0 22 -5 21 -42z m-332 -7 c8 8 17 7 32 -3 25 -15 27
-40 6 -58 -8 -7 -12 -16 -9 -21 10 -16 24 -9 34 17 22 56 58 69 96 33 23 -22
44 -19 44 7 0 9 11 14 35 14 32 0 35 -2 35 -29 0 -17 5 -33 10 -36 6 -3 10
-15 10 -25 0 -32 20 -33 26 -1 8 41 25 39 59 -5 25 -32 31 -35 61 -29 31 5 38
2 78 -40 29 -29 42 -52 39 -63 -2 -10 3 -24 11 -31 9 -8 16 -20 16 -27 0 -8
12 -20 26 -26 19 -9 24 -17 19 -32 -8 -25 -9 -40 -7 -83 2 -38 17 -44 26 -11
5 21 7 22 22 6 16 -15 15 -19 -3 -50 -13 -22 -28 -34 -47 -36 -15 -2 -30 -10
-33 -18 -3 -8 -14 -14 -24 -14 -22 0 -44 -32 -54 -77 -4 -18 -10 -33 -15 -33
-4 0 -11 -11 -14 -25 -6 -22 -9 -24 -54 -18 -34 4 -58 1 -80 -11 -39 -20 -52
-20 -52 -1 0 8 -3 15 -8 15 -13 0 -55 89 -48 105 3 9 0 36 -6 61 -10 36 -10
49 0 65 15 23 7 129 -9 129 -5 0 -9 10 -9 23 0 31 -18 47 -53 47 -42 0 -76 41
-44 53 6 3 3 6 -8 6 -24 1 -82 61 -58 61 8 0 13 7 11 18 -3 12 -12 16 -31 14
-27 -3 -31 4 -27 41 1 15 -4 18 -27 15 -25 -3 -28 0 -31 30 -2 19 -1 41 3 49
5 14 7 14 23 -1 13 -11 21 -13 29 -5z m-4234 -237 c9 -10 -4 -34 -19 -34 -8 0
-14 9 -14 20 0 19 19 27 33 14z m454 -135 c55 -58 61 -69 38 -69 -24 0 -75 38
-75 56 0 8 -9 22 -19 31 -19 16 -19 33 -1 33 5 0 30 -23 57 -51z m3960 -1 c-3
-8 -6 -5 -6 6 -1 11 2 17 5 13 3 -3 4 -12 1 -19z m-4297 -105 c0 -7 -6 -13
-14 -13 -15 0 -39 54 -28 65 8 7 41 -35 42 -52z m-2152 -2 c11 -7 9 -13 -9
-30 -12 -11 -29 -21 -36 -21 -14 0 -34 40 -26 53 6 10 55 9 71 -2z m-43 -131
c3 -5 -1 -10 -9 -10 -9 0 -16 5 -16 10 0 6 4 10 9 10 6 0 13 -4 16 -10z m-181
-29 c3 -5 3 -22 0 -39 -6 -28 -8 -29 -35 -19 -30 12 -37 35 -17 55 14 14 44
16 52 3z m1563 -43 c-3 -8 -6 -5 -6 6 -1 11 2 17 5 13 3 -3 4 -12 1 -19z
m-1239 0 c20 -20 14 -38 -13 -38 -26 0 -29 7 -19 34 7 19 16 20 32 4z m2162
-13 c0 -8 -4 -15 -10 -15 -5 0 -10 7 -10 15 0 8 5 15 10 15 6 0 10 -7 10 -15z
m-903 -47 c-3 -8 -6 -5 -6 6 -1 11 2 17 5 13 3 -3 4 -12 1 -19z m-1535 -25 c5
-6 17 -9 28 -6 15 4 20 0 20 -15 0 -12 10 -26 23 -33 47 -24 67 -51 67 -91 0
-34 -3 -38 -26 -38 -33 0 -64 17 -64 35 0 7 -14 27 -30 44 -26 25 -59 102 -60
135 0 9 31 -13 42 -31z m1608 -76 c0 -13 9 -31 21 -40 21 -18 22 -38 2 -44 -7
-3 -17 6 -24 19 -14 25 -19 99 -6 91 4 -2 7 -14 7 -26z m-1393 -69 c-3 -7 -5
-2 -5 12 0 14 2 19 5 13 2 -7 2 -19 0 -25z m31 -57 c3 -16 -1 -22 -10 -19 -7
3 -15 15 -16 27 -3 16 1 22 10 19 7 -3 15 -15 16 -27z m7 -161 c17 -11 40 -20
53 -20 33 0 114 -80 136 -135 10 -25 16 -49 13 -52 -6 -5 -52 28 -137 99 -25
21 -70 50 -100 66 -65 32 -79 62 -28 62 18 0 47 -9 63 -20z m7190 10 c3 -6 0
-17 -8 -25 -13 -13 -16 -13 -21 0 -3 8 -17 15 -31 15 -15 0 -24 4 -20 10 8 13
72 13 80 0z m-65 -35 c0 -8 -6 -15 -14 -15 -20 0 -29 17 -14 23 22 9 28 7 28
-8z m-970 -75 c12 -8 9 -10 -12 -10 -16 0 -28 5 -28 10 0 13 20 13 40 0z m90
-35 c0 -8 7 -15 15 -15 16 0 19 -9 9 -34 -9 -23 -24 -20 -24 5 0 12 -8 23 -20
26 -23 6 -26 19 -7 26 21 9 27 7 27 -8z m1780 1 c0 -11 -19 -15 -25 -6 -3 5 1
10 9 10 9 0 16 -2 16 -4z m41 -19 c-7 -9 -7 -17 -1 -23 7 -7 4 -18 -9 -33 -12
-14 -22 -18 -26 -11 -11 18 5 68 23 73 9 3 19 5 21 6 2 0 -1 -5 -8 -12z
m-1951 -87 c0 -29 -4 -40 -15 -40 -17 0 -18 4 -9 49 9 44 24 39 24 -9z m-5885
-10 c3 -5 1 -10 -4 -10 -6 0 -11 5 -11 10 0 6 2 10 4 10 3 0 8 -4 11 -10z
m6035 -20 c0 -5 -4 -10 -10 -10 -5 0 -10 5 -10 10 0 6 5 10 10 10 6 0 10 -4
10 -10z m1248 -19 c11 -7 10 -10 -3 -15 -20 -7 -38 1 -30 15 7 11 16 11 33 0z
m135 -50 c15 -8 27 -20 27 -26 0 -14 -84 -30 -100 -20 -16 10 -12 38 4 32 9
-4 17 2 21 14 4 11 10 19 13 17 4 -2 19 -10 35 -17z m-1855 -59 c2 -7 -3 -12
-12 -12 -9 0 -16 7 -16 16 0 17 22 14 28 -4z m2157 -1072 c3 -5 -3 -10 -14
-10 -12 0 -21 5 -21 10 0 6 6 10 14 10 8 0 18 -4 21 -10z m-303 -84 l3 -61 47
0 c60 0 68 -10 35 -41 -36 -33 -34 -47 7 -70 29 -15 30 -31 4 -39 -13 -5 -24
-3 -26 4 -2 7 -29 11 -68 11 l-64 0 0 40 c0 22 -4 40 -8 40 -18 0 -31 -25 -25
-51 6 -31 -3 -35 -68 -30 -24 2 -27 -2 -33 -44 -6 -39 -10 -45 -32 -45 -31 0
-41 25 -20 49 9 10 16 23 16 29 0 7 7 12 15 12 8 0 15 9 15 21 0 13 11 25 35
34 43 18 67 55 35 55 -11 0 -20 -5 -20 -11 0 -6 -14 -9 -32 -7 -26 2 -35 -2
-43 -19 -12 -27 -35 -31 -35 -6 0 10 -12 41 -27 69 -23 44 -25 55 -14 68 12
14 16 13 41 -6 35 -26 50 -17 52 30 1 22 4 11 7 -28 l6 -65 36 -3 c23 -2 40 2
49 12 7 9 22 16 34 16 19 0 21 5 18 40 -6 55 1 69 32 63 23 -5 25 -10 28 -67z
m238 38 c0 -8 -4 -14 -8 -14 -4 0 -8 9 -8 19 0 11 4 17 8 15 4 -3 8 -12 8 -20z
m-40 -24 c0 -5 -10 -10 -22 -10 -19 0 -20 2 -8 10 19 13 30 13 30 0z m-538
-202 c-15 -15 -26 -4 -18 18 5 13 9 15 18 6 9 -9 9 -15 0 -24z m458 -87 c12
-23 5 -47 -17 -55 -23 -9 -33 2 -33 40 0 27 4 34 20 34 10 0 24 -9 30 -19z
m-160 -86 c0 -13 -4 -27 -10 -30 -6 -4 -10 8 -10 30 0 22 4 34 10 30 6 -3 10
-17 10 -30z m-172 18 c-10 -2 -26 -2 -35 0 -10 3 -2 5 17 5 19 0 27 -2 18 -5z
m-3986 -490 c6 -12 7 -34 4 -50 -19 -78 -19 -84 3 -90 11 -3 21 -12 21 -20 0
-9 8 -13 20 -11 21 3 22 -4 8 -41 -5 -14 -7 -30 -4 -38 6 -13 36 -7 36 8 0 14
33 10 57 -6 13 -9 25 -31 28 -53 11 -61 15 -71 36 -77 27 -9 24 -48 -5 -71
-14 -10 -22 -22 -19 -27 4 -7 -18 3 -46 21 -3 1 -6 20 -7 42 -1 32 -10 47 -49
85 -43 41 -50 45 -63 31 -13 -13 -14 -21 -3 -54 7 -22 14 -59 15 -83 1 -30 9
-55 27 -79 28 -38 48 -143 29 -155 -6 -3 -7 -17 -4 -30 3 -13 1 -32 -5 -42 -9
-16 -10 -16 -11 5 0 12 -7 25 -15 29 -19 7 -45 66 -45 101 0 14 -8 34 -17 45
-14 15 -18 37 -18 108 0 57 -4 92 -12 100 -7 7 -13 20 -13 29 0 9 -5 21 -11
27 -8 8 -9 34 -5 80 4 37 9 102 11 143 4 50 10 79 20 86 8 6 15 17 16 25 0 11
2 11 6 -1 2 -8 9 -25 15 -37z m55 -109 c3 -8 0 -21 -6 -27 -10 -9 -16 -8 -26
7 -8 10 -12 23 -9 27 9 15 34 10 41 -7z m-242 -264 c49 -1 54 -17 59 -236 2
-67 6 -126 10 -132 14 -23 48 -128 50 -153 0 -14 8 -34 16 -44 8 -9 13 -30 12
-44 -2 -16 6 -38 17 -53 23 -29 27 -58 10 -75 -6 -6 -12 -30 -15 -54 -2 -24
-8 -53 -13 -64 -5 -11 -12 -32 -15 -46 -6 -28 -70 -79 -99 -79 -10 0 -26 17
-38 43 -12 23 -34 50 -50 59 -16 10 -29 24 -29 32 0 9 -12 22 -27 30 -16 8
-42 29 -60 47 -51 54 -62 61 -92 57 -39 -4 -58 15 -65 67 -4 25 -11 47 -17 50
-5 4 -9 14 -9 23 0 9 -18 40 -39 67 -58 74 -91 134 -91 166 0 29 43 110 58
108 4 -1 21 -1 39 0 24 1 33 7 42 29 5 15 17 35 24 45 20 24 75 39 99 26 15
-8 27 -3 65 28 25 21 57 55 70 76 20 31 29 38 46 33 12 -3 31 -6 42 -6z m356
-229 c9 -29 8 -43 -1 -61 l-12 -23 -14 33 c-8 18 -14 45 -14 61 0 43 27 37 41
-10z m106 -213 c-3 -8 -6 -5 -6 6 -1 11 2 17 5 13 3 -3 4 -12 1 -19z m-417
-564 c0 -8 -5 -12 -10 -9 -6 4 -8 11 -5 16 9 14 15 11 15 -7z m705 -134 c-3
-5 -10 -10 -16 -10 -5 0 -9 5 -9 10 0 6 7 10 16 10 8 0 12 -4 9 -10z"/>
<path d="M9290 7280 c0 -15 7 -20 25 -20 30 0 33 15 6 30 -27 14 -31 13 -31
-10z"/>
<path d="M7547 7273 c-11 -10 13 -33 34 -33 22 0 24 11 7 28 -13 13 -31 16
-41 5z"/>
<path d="M9541 7174 c0 -11 3 -14 6 -6 3 7 2 16 -1 19 -3 4 -6 -2 -5 -13z"/>
<path d="M6080 5989 c0 -11 5 -17 10 -14 6 3 10 13 10 21 0 8 -4 14 -10 14 -5
0 -10 -9 -10 -21z"/>
<path d="M6070 5941 c-13 -25 -3 -94 13 -88 19 6 27 69 12 90 -13 18 -14 18
-25 -2z"/>
<path d="M6001 5728 c-35 -37 -38 -50 -16 -68 23 -19 43 -5 55 41 16 58 0 69
-39 27z"/>
<path d="M5781 5648 c-22 -27 -29 -30 -65 -25 -89 13 -76 -20 27 -68 47 -23
60 -25 72 -15 12 10 19 10 27 2 20 -20 58 -15 58 8 0 16 -7 20 -35 20 -40 0
-59 26 -53 72 6 39 -2 41 -31 6z"/>
<path d="M5376 5558 c8 -27 12 -33 19 -27 7 8 -7 49 -17 49 -5 0 -6 -10 -2
-22z"/>
<path d="M5410 5499 c7 -11 14 -18 17 -15 8 8 -5 36 -17 36 -7 0 -7 -6 0 -21z"/>
<path d="M5430 5462 c0 -15 28 -47 35 -40 11 11 -5 48 -21 48 -8 0 -14 -4 -14
-8z"/>
<path d="M5790 5419 c-25 -5 -62 -18 -83 -30 -30 -17 -48 -20 -83 -14 -24 3
-44 2 -44 -3 0 -16 46 -52 66 -52 30 0 52 -22 56 -55 3 -27 8 -30 48 -37 31
-5 48 -4 56 5 17 18 34 75 34 111 0 18 5 37 10 42 11 11 4 45 -9 43 -3 -1 -26
-5 -51 -10z"/>
<path d="M7097 5323 c-4 -3 -7 -15 -7 -25 0 -11 -7 -18 -19 -18 -26 0 -51 -10
-51 -21 0 -5 10 -9 23 -9 17 0 19 -2 8 -9 -9 -6 -22 -6 -32 -1 -13 8 -18 4
-23 -20 -6 -30 -16 -36 -81 -43 -20 -3 -31 -10 -34 -23 -2 -10 -22 -37 -46
-59 l-42 -41 29 -42 29 -41 -26 -7 c-27 -7 -29 -12 -16 -33 12 -19 65 -5 93
25 16 17 34 24 61 24 43 0 135 40 162 70 10 11 42 33 71 50 30 17 55 36 55 43
1 6 2 17 4 22 1 6 3 18 3 28 1 9 10 17 21 17 21 0 45 23 34 33 -3 4 -12 7 -19
7 -7 0 -33 14 -58 31 -29 19 -53 28 -65 24 -10 -3 -24 1 -31 10 -13 16 -32 20
-43 8z"/>
<path d="M8003 4504 c-9 -25 13 -40 32 -20 9 9 13 20 10 26 -9 15 -35 12 -42
-6z"/>
<path d="M8488 4454 c-8 -7 2 -44 12 -44 13 0 32 29 25 40 -7 11 -28 14 -37 4z"/>
<path d="M6200 6584 c0 -8 5 -12 10 -9 6 4 8 11 5 16 -9 14 -15 11 -15 -7z"/>
<path d="M8930 6205 c-8 -9 -8 -15 -2 -15 12 0 26 19 19 26 -2 2 -10 -2 -17
-11z"/>
<path d="M5910 2564 c0 -9 7 -14 17 -12 25 5 28 28 4 28 -12 0 -21 -6 -21 -16z"/>
<path d="M621 6714 c13 -16 29 -19 29 -5 0 5 -9 11 -21 14 -16 4 -18 3 -8 -9z"/>
<path d="M10698 4863 c7 -3 16 -2 19 1 4 3 -2 6 -13 5 -11 0 -14 -3 -6 -6z"/>
<path d="M863 3605 c-11 -8 -40 -17 -64 -21 -24 -4 -52 -14 -61 -22 -10 -8
-18 -12 -18 -8 0 4 -13 -2 -29 -13 -16 -12 -34 -21 -39 -21 -20 0 -56 -63 -56
-97 0 -30 -3 -33 -29 -33 -22 0 -28 4 -23 15 8 21 -17 19 -37 -3 -24 -26 -22
-45 4 -37 28 9 89 -24 89 -47 0 -22 -23 -23 -40 -3 -19 23 -34 18 -54 -19
l-18 -33 42 -99 c260 -612 659 -1196 1145 -1678 165 -164 478 -431 614 -524
l74 -51 17 22 c18 23 29 40 89 144 19 32 55 87 80 122 56 78 231 291 255 311
18 14 60 100 77 153 7 24 4 33 -16 52 -14 12 -25 28 -25 34 0 21 -31 74 -79
136 -26 33 -52 71 -59 85 -6 14 -16 32 -22 40 -5 8 -14 27 -20 43 -5 15 -17
30 -25 33 -9 4 -62 -14 -119 -40 -57 -25 -108 -46 -114 -46 -6 0 -66 -18 -134
-41 -171 -57 -249 -73 -353 -73 -79 1 -95 4 -131 26 -22 15 -61 50 -85 78 -74
88 -179 190 -195 190 -33 0 -129 142 -173 255 -18 44 -58 134 -91 200 -63 128
-85 194 -95 290 -4 33 -17 94 -30 135 -13 41 -28 98 -34 126 -7 28 -23 72 -36
99 -14 27 -25 56 -25 65 0 10 -7 34 -15 54 -15 34 -18 36 -49 30 -46 -8 -51 7
-15 44 34 35 33 62 -1 62 -12 0 -35 -13 -51 -29 -16 -17 -45 -36 -64 -42 -19
-7 -35 -17 -35 -21 0 -5 -16 -24 -35 -43 -30 -28 -41 -33 -65 -28 -22 4 -31 1
-36 -11 -7 -19 -30 -21 -37 -3 -2 6 2 19 10 27 7 8 22 26 32 40 17 22 22 23
40 13 17 -11 24 -9 50 15 16 15 34 39 40 54 7 20 19 29 46 34 19 3 35 10 35
15 0 5 11 15 25 21 14 6 25 17 25 25 0 17 -30 17 -57 -2z m43 -170 c2 -5 -8
-18 -21 -28 -22 -16 -26 -16 -31 -2 -4 8 -1 22 6 31 14 16 41 16 46 -1z m1235
-2021 c7 -14 24 -30 36 -35 23 -9 31 -43 13 -54 -26 -16 -80 48 -80 95 0 28
14 25 31 -6z"/>
<path d="M2330 2408 c0 -59 11 -76 64 -106 106 -59 185 -74 207 -39 11 16 -2
44 -26 55 -12 6 -38 24 -56 40 -25 22 -49 31 -92 36 -41 6 -60 13 -67 27 -16
29 -30 23 -30 -13z"/>
<path d="M1940 2203 c0 -21 53 -48 77 -39 15 6 15 9 -3 25 -10 10 -31 21 -46
25 -23 5 -28 3 -28 -11z"/>
<path d="M3060 1576 c0 -34 10 -56 25 -56 19 0 26 26 15 55 -12 33 -40 33 -40
1z"/>
<path d="M3047 1484 c-4 -4 -7 -27 -7 -50 0 -45 -33 -122 -58 -137 -9 -6 -11
-18 -7 -34 4 -17 0 -31 -10 -43 -19 -21 -44 -166 -46 -260 -1 -55 -8 -79 -46
-158 -25 -52 -47 -113 -49 -137 l-4 -44 72 -42 c88 -51 398 -203 403 -197 6 5
-19 108 -32 133 -41 79 -73 153 -73 170 0 26 121 -92 157 -152 21 -37 24 -50
18 -93 -4 -27 -11 -52 -16 -56 -5 -3 -9 -9 -9 -13 0 -9 61 -41 77 -41 5 0 17
24 28 53 10 28 19 54 21 56 1 2 24 -5 49 -15 45 -17 47 -17 73 3 15 11 32 31
39 44 48 98 64 136 96 229 58 175 75 280 43 280 -9 0 -15 -18 -20 -54 -3 -29
-19 -87 -36 -127 -16 -41 -30 -75 -30 -76 0 -2 -6 -3 -14 -3 -19 0 -26 45 -26
172 0 97 -3 116 -26 164 -33 71 -59 74 -49 7 4 -27 12 -54 17 -61 6 -7 12 -75
14 -155 1 -78 7 -155 13 -170 29 -77 3 -137 -67 -150 -30 -6 -35 -3 -67 41
-19 26 -35 54 -35 63 0 9 -7 33 -15 52 -24 59 -2 225 42 312 16 32 15 90 -2
90 -15 0 -72 -121 -90 -190 -8 -33 -15 -83 -15 -112 0 -57 -4 -62 -36 -35 -20
17 -64 108 -64 134 0 7 -10 31 -21 53 -12 22 -26 54 -31 70 -40 128 -59 215
-70 309 -8 79 -17 117 -33 140 -21 31 -45 43 -58 30z"/>
<path d="M2611 1158 c0 -9 -5 -18 -9 -20 -4 -1 -30 -36 -57 -76 -74 -109 -84
-124 -101 -162 -15 -33 -15 -35 6 -52 12 -10 26 -18 30 -18 5 0 21 33 36 73
15 39 45 110 66 155 22 46 37 91 35 100 -4 16 -5 16 -6 0z"/>
<path d="M2738 1062 c-16 -10 -30 -29 -34 -47 -3 -16 -11 -39 -17 -50 -14 -27
-19 -112 -7 -120 13 -8 -3 -40 -37 -76 l-25 -27 43 -25 c41 -25 44 -25 55 -8
20 28 52 129 65 201 13 75 13 82 11 133 -2 41 -12 44 -54 19z"/>
<path d="M4018 803 c-13 -16 -56 -56 -95 -90 -55 -49 -77 -77 -107 -140 -21
-43 -44 -96 -51 -118 -7 -22 -23 -66 -34 -97 -12 -32 -21 -71 -21 -88 0 -28
29 -70 48 -70 4 0 14 35 21 78 7 42 29 120 49 172 35 91 41 99 129 185 70 67
96 100 104 129 8 31 8 42 -3 53 -12 12 -18 10 -40 -14z"/>
<path d="M4155 668 c-6 -15 -24 -195 -32 -316 -6 -95 5 -143 49 -209 50 -74
57 -52 12 37 -22 43 -30 169 -16 237 6 28 14 98 18 157 6 95 5 106 -10 106 -9
0 -19 -6 -21 -12z"/>
<path d="M4458 65 c-15 -15 7 -45 40 -55 45 -12 51 -6 25 28 -19 26 -52 40
-65 27z"/>
</g>
</svg>
